<?xml version="1.0" encoding="UTF-8" standalone="no"?>
<svg
   xmlns:dc="http://purl.org/dc/elements/1.1/"
   xmlns:cc="http://creativecommons.org/ns#"
   xmlns:rdf="http://www.w3.org/1999/02/22-rdf-syntax-ns#"
   xmlns:svg="http://www.w3.org/2000/svg"
   xmlns="http://www.w3.org/2000/svg"
   xmlns:sodipodi="http://sodipodi.sourceforge.net/DTD/sodipodi-0.dtd"
   xmlns:inkscape="http://www.inkscape.org/namespaces/inkscape"
   version="1.1"
   id="svg10"
   width="128.18124"
   height="86.318886"
   viewBox="0 0 128.18124 86.318886"
   sodipodi:docname="FLOWer_dandi.svg"
   inkscape:version="1.0.1 (3bc2e813f5, 2020-09-07)">
  <metadata
     id="metadata16">
    <rdf:RDF>
      <cc:Work
         rdf:about="">
        <dc:format>image/svg+xml</dc:format>
        <dc:type
           rdf:resource="http://purl.org/dc/dcmitype/StillImage" />
        <dc:title></dc:title>
      </cc:Work>
    </rdf:RDF>
  </metadata>
  <defs
     id="defs14" />
  <sodipodi:namedview
     pagecolor="#ffffff"
     bordercolor="#666666"
     borderopacity="1"
     objecttolerance="10"
     gridtolerance="10"
     guidetolerance="10"
     inkscape:pageopacity="0"
     inkscape:pageshadow="2"
     inkscape:window-width="1920"
     inkscape:window-height="1017"
     id="namedview12"
     showgrid="false"
     inkscape:zoom="3.8019097"
     inkscape:cx="78.610997"
     inkscape:cy="47.841824"
     inkscape:window-x="1912"
     inkscape:window-y="-8"
     inkscape:window-maximized="1"
     inkscape:current-layer="g18" />
  <g
     inkscape:groupmode="layer"
     inkscape:label="Image"
     id="g18"
     transform="translate(-1078.5713,-617.3495)">
    <g
       id="g46"
       transform="translate(1068.1853,610.50238)">
      <path
         d="m 37.023,38.707 c 0,-2.81 -2.277,-5.087 -5.087,-5.087 -2.81,0 -5.088,2.278 -5.088,5.087 0,1.641 0.791,3.085 1.998,4.016 -1.475,6.142 -4.502,11.436 -7.716,17.004 -5.036,8.727 -10.744,18.616 -10.744,33.439 h 4 c 0,-13.752 5.19,-22.743 10.208,-31.439 3.357,-5.817 6.522,-11.352 8.127,-18.011 2.434,-0.381 4.302,-2.468 4.302,-5.009 z"
         id="path22" />
      <path
         d="m 36.537,18.913 c -0.398,-0.383 -1.031,-0.37 -1.414,0.026 -0.309,0.32 -1.18,1.077 -2.064,1.45 v -1.177 c 0,-0.552 -0.448,-1 -1,-1 -0.552,0 -1,0.448 -1,1 v 1.162 c -1,-0.38 -1.972,-1.13 -2.351,-1.478 -0.405,-0.372 -1.037,-0.347 -1.413,0.059 -0.374,0.406 -0.348,1.037 0.057,1.412 0.208,0.192 1.831,1.631 3.707,2.089 v 7.722 1.163 0.062 c 0,0.552 0.448,1 1,1 0.552,0 1,-0.448 1,-1 v -0.062 -1.163 -7.694 c 1.797,-0.435 3.315,-1.959 3.507,-2.16 0.381,-0.397 0.368,-1.029 -0.029,-1.411 z"
         id="path24" />
      <path
         d="m 28.661,31.687 -0.035,-0.046 c 0,-10e-4 0,-0.002 -0.001,-0.003 L 27.931,30.704 C 27.93,30.703 27.929,30.703 27.928,30.701 l -4.586,-6.166 c 1.184,-1.421 1.487,-3.555 1.521,-3.83 0.069,-0.547 -0.319,-1.046 -0.866,-1.116 -0.544,-0.07 -1.047,0.318 -1.118,0.865 -0.057,0.441 -0.304,1.567 -0.791,2.395 l -0.702,-0.944 c -0.33,-0.444 -0.955,-0.536 -1.399,-0.206 -0.443,0.33 -0.535,0.956 -0.206,1.399 l 0.694,0.933 c -1.029,0.292 -2.258,0.271 -2.77,0.218 -0.553,-0.054 -1.041,0.342 -1.098,0.891 -0.058,0.549 0.339,1.04 0.888,1.099 0.105,0.011 0.472,0.045 0.982,0.045 0.861,0 2.128,-0.102 3.245,-0.575 l 5.334,7.171 c 0.196,0.264 0.498,0.403 0.803,0.403 0.208,0 0.417,-0.064 0.596,-0.198 0.443,-0.329 0.535,-0.955 0.206,-1.398 z"
         id="path26" />
      <path
         d="m 25.647,34.679 -0.055,-0.021 c 0,0 -10e-4,-0.001 -0.002,-0.001 l -1.086,-0.42 c -0.001,0 -0.001,0 -0.002,0 l -7.171,-2.776 c 0.244,-1.833 -0.631,-3.799 -0.749,-4.05 -0.234,-0.5 -0.829,-0.714 -1.328,-0.482 -0.5,0.233 -0.717,0.827 -0.485,1.328 0.187,0.403 0.579,1.488 0.607,2.448 L 14.277,30.28 c -0.515,-0.198 -1.094,0.056 -1.293,0.572 -0.199,0.515 0.057,1.094 0.572,1.293 l 1.083,0.419 c -0.715,0.795 -1.766,1.432 -2.227,1.66 -0.495,0.244 -0.698,0.843 -0.455,1.338 0.174,0.354 0.529,0.559 0.897,0.559 0.148,0 0.298,-0.033 0.439,-0.102 0.255,-0.125 2.182,-1.119 3.286,-2.703 l 8.343,3.23 c 0.119,0.046 0.241,0.068 0.361,0.068 0.401,0 0.779,-0.243 0.933,-0.64 0.202,-0.516 -0.054,-1.096 -0.569,-1.295 z"
         id="path28" />
      <path
         d="m 25.45,38.841 c -0.125,-0.538 -0.665,-0.873 -1.201,-0.748 l -0.433,0.101 -0.76,0.176 c 0,0 -0.001,0 -0.001,0 l -7.492,1.741 c -0.831,-1.652 -2.659,-2.785 -2.897,-2.927 -0.475,-0.283 -1.089,-0.126 -1.371,0.349 -0.282,0.475 -0.125,1.088 0.349,1.371 0.381,0.227 1.316,0.9 1.88,1.681 l -1.149,0.267 c -0.538,0.125 -0.873,0.663 -0.748,1.201 0.107,0.461 0.519,0.773 0.973,0.773 0.075,0 0.151,-0.008 0.228,-0.026 l 1.132,-0.263 c -0.145,1.059 -0.655,2.177 -0.908,2.625 -0.271,0.48 -0.103,1.09 0.376,1.363 0.156,0.088 0.326,0.13 0.493,0.13 0.347,0 0.685,-0.181 0.869,-0.505 0.141,-0.247 1.175,-2.153 1.197,-4.084 l 8.714,-2.025 c 0.539,-0.124 0.874,-0.662 0.749,-1.2 z"
         id="path30" />
      <path
         d="m 26.956,42.779 c -0.371,-0.408 -1.003,-0.441 -1.413,-0.07 l -0.834,0.756 -0.074,0.066 v 0 l -5.698,5.163 c -1.529,-1.039 -3.682,-1.136 -3.958,-1.144 -0.543,-0.023 -1.01,0.418 -1.027,0.97 -0.017,0.551 0.417,1.012 0.969,1.029 0.444,0.014 1.588,0.151 2.46,0.555 l -0.871,0.789 c -0.409,0.371 -0.44,1.003 -0.07,1.413 0.198,0.218 0.469,0.328 0.742,0.328 0.239,0 0.479,-0.086 0.671,-0.259 l 0.861,-0.78 c 0.389,0.995 0.486,2.22 0.483,2.734 -0.003,0.552 0.44,1.003 0.992,1.007 0.003,0 0.006,0 0.008,0 0.548,0 0.995,-0.44 1,-0.989 0.003,-0.284 -0.011,-2.458 -0.933,-4.156 l 5.789,-5.244 0.789,-0.714 c 0,0 0,-10e-4 0.001,-10e-4 l 0.045,-0.041 c 0.407,-0.371 0.439,-1.003 0.068,-1.412 z"
         id="path32" />
      <path
         d="m 52.268,17.462 c -0.146,-0.534 -0.701,-0.845 -1.229,-0.698 -0.461,0.127 -1.691,0.354 -2.768,0.233 l 0.532,-1.032 c 0.253,-0.491 0.061,-1.094 -0.43,-1.347 -0.49,-0.253 -1.094,-0.06 -1.347,0.43 l -0.54,1.045 c -0.615,-0.738 -1.041,-1.809 -1.169,-2.234 -0.159,-0.527 -0.712,-0.828 -1.244,-0.672 -0.528,0.158 -0.83,0.712 -0.673,1.242 0.079,0.266 0.725,2.32 2.124,3.531 l -4.087,7.922 c -0.253,0.491 -0.061,1.094 0.43,1.347 0.146,0.076 0.303,0.111 0.458,0.111 0.362,0 0.712,-0.197 0.89,-0.542 l 0.027,-0.053 c 0,-0.001 0.001,-0.002 0.002,-0.003 l 0.533,-1.033 c 0,-0.001 0,-0.002 10e-4,-0.003 l 3.538,-6.856 c 0.54,0.13 1.096,0.188 1.625,0.188 1.31,0 2.436,-0.293 2.631,-0.348 0.53,-0.145 0.842,-0.696 0.696,-1.228 z"
         id="path34"
         style="fill:#e84177;fill-opacity:1" />
      <path
         d="m 69.952,19.972 c -0.481,-0.181 -1.59,-0.711 -2.38,-1.431 l 1.036,-0.524 c 0.493,-0.249 0.69,-0.851 0.441,-1.344 -0.25,-0.493 -0.852,-0.691 -1.344,-0.44 l -1.05,0.531 c -0.067,-0.958 0.215,-2.077 0.361,-2.497 0.181,-0.521 -0.094,-1.091 -0.614,-1.273 -0.522,-0.184 -1.09,0.091 -1.273,0.611 -0.092,0.262 -0.772,2.306 -0.348,4.106 l -7.955,4.025 c -0.493,0.249 -0.69,0.851 -0.441,1.344 0.177,0.348 0.528,0.548 0.894,0.548 0.151,0 0.306,-0.035 0.45,-0.108 l 0.051,-0.026 c 0.002,-0.001 0.004,-0.001 0.006,-0.002 l 1.038,-0.525 c 0.001,0 0.002,-10e-4 0.002,-0.002 l 6.88,-3.481 c 1.256,1.469 3.28,2.261 3.546,2.36 0.115,0.043 0.233,0.063 0.35,0.063 0.404,0 0.785,-0.248 0.936,-0.649 0.192,-0.515 -0.069,-1.091 -0.586,-1.286 z"
         id="path36"
         style="fill:#e84177;fill-opacity:1" />
      <path
         d="m 89.688626,12.028979 c -0.479409,0.0097 -1.724894,-0.07379 -2.737829,-0.454925 l 0.769492,-0.867845 c 0.36569,-0.413425 0.328697,-1.0448773 -0.08483,-1.4115626 -0.415615,-0.3674815 -1.046768,-0.3275027 -1.411563,0.084828 L 85.44356,10.259459 C 85.029355,9.3933642 84.87994,8.2505588 84.860652,7.8062741 84.83669,7.2549231 84.371724,6.8260462 83.821169,6.8479181 c -0.551948,0.028041 -0.979531,0.4858431 -0.958555,1.0374924 0.01054,0.2763222 0.131162,2.4279945 1.188337,3.9453635 l -5.91264,6.672218 c -0.36569,0.413425 -0.328697,1.044877 0.08483,1.411562 0.21721,0.192349 0.495619,0.273056 0.76229,0.246398 0.241795,-0.02417 0.474836,-0.135906 0.649173,-0.332221 l 0.0397,-0.04517 c 8.96e-4,-0.0011 0.0019,-0.0012 0.0028,-0.0023 l 0.771184,-0.871029 c 0,0 0,0 0,0 l 5.115286,-5.771438 c 1.708249,0.902557 3.882206,0.894274 4.166986,0.887915 0.02707,-6.96e-4 0.05403,-0.0024 0.0799,-0.005 0.514436,-0.05143 0.909779,-0.489925 0.899449,-1.015504 -0.01172,-0.54956 -0.468629,-0.988287 -1.021273,-0.977262 z"
         id="path38"
         style="fill:#e84177;fill-opacity:1" />
      <path
         d="m 52.342,38.904 c 0.474,-0.283 0.629,-0.897 0.347,-1.371 -0.282,-0.473 -0.894,-0.629 -1.369,-0.348 -0.238,0.142 -2.066,1.274 -2.897,2.927 l -7.49,-1.741 c -10e-4,0 -10e-4,0 -0.002,-0.001 l -1.135,-0.263 c 0,0 0,0 0,0 l -0.059,-0.014 c -0.536,-0.125 -1.076,0.21 -1.201,0.748 -0.125,0.538 0.21,1.076 0.748,1.201 l 8.714,2.025 c 0.021,1.931 1.057,3.837 1.197,4.084 0.185,0.324 0.522,0.505 0.869,0.505 0.167,0 0.337,-0.042 0.493,-0.13 0.479,-0.272 0.648,-0.882 0.376,-1.363 -0.253,-0.448 -0.764,-1.565 -0.908,-2.625 l 1.132,0.263 c 0.076,0.018 0.152,0.026 0.228,0.026 0.454,0 0.866,-0.312 0.973,-0.773 0.125,-0.538 -0.209,-1.076 -0.747,-1.201 l -1.146,-0.267 c 0.562,-0.777 1.496,-1.453 1.877,-1.682 z"
         id="path40" />
      <path
         d="m 49.005,47.55 c -0.277,0.008 -2.428,0.105 -3.958,1.145 l -5.695,-5.16 C 39.351,43.534 39.351,43.533 39.35,43.532 l -0.862,-0.781 c 0,0 -10e-4,0 -10e-4,-10e-4 l -0.045,-0.041 c -0.409,-0.371 -1.042,-0.339 -1.413,0.07 -0.371,0.409 -0.339,1.042 0.07,1.413 l 6.623,6.001 c -0.921,1.697 -0.937,3.871 -0.934,4.155 0.005,0.549 0.452,0.99 1,0.99 0.003,0 0.006,0 0.009,0 0.552,-0.005 0.996,-0.457 0.991,-1.01 -0.005,-0.479 0.093,-1.723 0.485,-2.73 l 0.859,0.778 c 0.191,0.173 0.432,0.259 0.671,0.259 0.272,0 0.544,-0.11 0.742,-0.328 0.371,-0.41 0.339,-1.042 -0.07,-1.413 l -0.87,-0.789 c 0.871,-0.404 2.015,-0.542 2.459,-0.556 0.552,-0.018 0.985,-0.478 0.969,-1.029 -0.016,-0.551 -0.45,-1.014 -1.028,-0.97 z"
         id="path42" />
      <path
         d="m 39.493,56.388 c -0.202,-0.189 -1.812,-1.64 -3.611,-1.982 l -0.385,-7.678 c 0,-0.001 0,-0.003 0,-0.005 L 35.438,45.56 c 0,-0.001 -0.001,-0.002 -0.001,-0.004 l -0.003,-0.059 c -0.027,-0.551 -0.491,-0.969 -1.049,-0.948 -0.551,0.027 -0.976,0.497 -0.948,1.049 l 0.449,8.936 c -1.85,0.551 -3.397,2.069 -3.596,2.272 -0.386,0.394 -0.379,1.025 0.014,1.412 0.194,0.191 0.447,0.286 0.7,0.286 0.259,0 0.518,-0.1 0.713,-0.298 0.361,-0.367 1.295,-1.164 2.273,-1.594 l 0.058,1.159 c 0.027,0.535 0.468,0.95 0.998,0.95 0.017,0 0.034,0 0.051,-10e-4 0.551,-0.028 0.976,-0.498 0.948,-1.049 l -0.059,-1.18 c 0.899,0.328 1.812,1.047 2.135,1.351 0.403,0.377 1.035,0.357 1.413,-0.044 0.378,-0.401 0.36,-1.031 -0.041,-1.41 z"
         id="path44" />
      <text
         xml:space="preserve"
         style="font-style:normal;font-weight:normal;font-size:32px;line-height:1.25;font-family:sans-serif;fill:#000000;fill-opacity:1;stroke:none"
         x="25.863503"
         y="93.152481"
         id="text894"><tspan
           sodipodi:role="line"
           id="tspan892"
           x="25.863503"
           y="93.152481"
           style="font-style:normal;font-variant:normal;font-weight:normal;font-stretch:normal;font-size:32px;font-family:Bender;-inkscape-font-specification:Bender">FLOWer</tspan></text>
    </g>
  </g>
</svg>
