<?xml version="1.0" encoding="utf-8"?>
<!-- Generator: Adobe Illustrator 22.0.1, SVG Export Plug-In . SVG Version: 6.00 Build 0)  -->
<svg version="1.1" id="Ebene_1" xmlns="http://www.w3.org/2000/svg" xmlns:xlink="http://www.w3.org/1999/xlink" x="0px" y="0px"
	 viewBox="0 0 48 44" style="enable-background:new 0 0 48 44;" xml:space="preserve">
<style type="text/css">
	.st0{fill:#E94177;}
	.st1{fill:#454038;}
</style>
<g>
	<path class="st0" d="M29.5,39.1v-9.3h-0.4v9.3c-1,0.1-1.9,0.8-2.1,1.8L4.8,34.8c0-0.1,0-0.2,0-0.3c0-1-0.6-1.9-1.5-2.3l0.8-2.5H3.7
		L3,32.1c-0.2,0-0.3-0.1-0.5-0.1c-1.3,0-2.4,1.1-2.4,2.5C0,35.9,1.1,37,2.4,37c1.1,0,2-0.7,2.3-1.8l22.1,6.2c0,0.1,0,0.1,0,0.2
		c0,1.4,1.1,2.5,2.4,2.5s2.4-1.1,2.4-2.5C31.8,40.3,30.8,39.2,29.5,39.1z"/>
	<g>
		<path class="st0" d="M29.1,5.8c-0.4,0-0.8,0.2-1,0.5L13.5,1.3c0,0,0,0,0,0c0-0.7-0.6-1.3-1.3-1.3c-0.7,0-1.3,0.6-1.3,1.3
			c0,0.5,0.3,1,0.7,1.2L7.3,17.4l0.4,0L12,2.6c0.1,0,0.1,0,0.2,0c0.6,0,1.1-0.4,1.2-0.9l14.5,4.9c-0.1,0.1-0.1,0.3-0.1,0.5
			c0,0.7,0.6,1.3,1.3,1.3c0,0,0,0,0,0v6.4h0.4V8.3c0.5-0.2,0.9-0.7,0.9-1.2C30.4,6.3,29.8,5.8,29.1,5.8z"/>
		<polygon class="st0" points="28.8,25.4 29.8,25.4 29.8,17.2 28.8,17.2 		"/>
	</g>
	<polygon class="st0" points="28.7,27 29,27.3 29.6,27.3 29.9,27 29.9,26.4 29.6,26 29,26 28.7,26.4 	"/>
</g>
<path class="st0" d="M37.4,28.5v0.4h-0.2v0.3h0.2v0.9l0.3,0.3H38l0.4-0.1L38.2,30l-0.3,0.1h-0.2L37.7,30v-0.8h0.4v-0.3h-0.4v-0.4
	H37.4z M38.5,28.9l0.1,0.4v1.1h0.3v-1l0.2-0.2h0.2l0.2,0.2l0.2-0.2l-0.3-0.3h-0.5l-0.2,0.2l-0.1-0.2L38.5,28.9z M36.1,28.9l-0.3,0.3
	v0.3l0.1,0.2l0.7,0.2l0,0.1V30l-0.1,0.1h-0.4L35.9,30l-0.1,0.3l0.3,0.1h0.6l0.3-0.3v-0.3l-0.1-0.2l-0.7-0.2l0-0.1v-0.1l0.1-0.1h0.4
	l0.3,0.1L37,29l-0.3-0.1H36.1z M39.5,30.1l-0.1,0.1v0.2l0.1,0.1h0.2l0.1-0.1v-0.2l-0.1-0.1H39.5z"/>
<g>
	<polygon class="st1" points="13.4,19.8 12.6,20.6 12.4,19.7 11.5,19.9 11.9,21.5 11.9,27.4 12.8,27.4 12.8,21.7 13.8,20.7 
		16.3,20.7 17,21.4 17,27.4 17.9,27.4 17.9,21 16.7,19.8 	"/>
	<path class="st1" d="M24.7,26.4h-2.9l-0.6-0.6v-1.6h3.9l1.2-1.1V21l-1.2-1.2h-3.6L20.3,21v5.2l1.2,1.2h3.4l1.4-0.5L26,26L24.7,26.4
		z M21.2,21.4l0.6-0.6h2.9l0.6,0.6v1.3l-0.6,0.6h-3.5V21.4z"/>
	<path class="st1" d="M4.3,19.8L3.2,21v5.2l1.2,1.2H8l1.2-1.2V21L8,19.8H4.3z M8.2,25.8l-0.6,0.6H4.7l-0.6-0.6v-4.4l0.6-0.6h2.9
		l0.6,0.6V25.8z"/>
	<polygon class="st1" points="32.6,18.4 37.9,18.4 34.4,21.5 34.4,22.5 37.5,22.5 38.3,23.4 38.3,25.6 37.4,26.5 34,26.5 32.7,26 
		32.5,26.9 33.9,27.4 37.8,27.4 39.3,25.9 39.3,23 37.8,21.6 35.7,21.6 39.3,18.4 39.3,17.5 32.6,17.5 	"/>
</g>
<path class="st1" d="M42.6,25.9v-4.5l0.6-0.6h2.7l0.8,0.9v3.9l-0.9,1h-2.6L42.6,25.9z M46.7,17.5v2.8l-0.5-0.5h-3.4L41.7,21v5.3
	l1.1,1.2h3.3l0.8-0.8l0.2,0.9l0.9-0.2l-0.4-1.6v-8.3H46.7z"/>
<g>
	<path class="st1" d="M32.8,29L32.8,29l-0.1-0.2l-0.1-0.3l-0.2,0.1l0.1,0.2v1.4l0.2,0.2h0.7l0.2-0.2v-1L33.4,29H32.8z M33.5,30.1
		l-0.1,0.1h-0.5l-0.1-0.1v-0.8l0.2-0.2h0.5l0.1,0.1V30.1z"/>
	<polygon class="st1" points="34.4,30.2 33.9,29 33.8,29 34.3,30.4 34.4,30.4 34.3,30.6 34.2,30.7 33.9,30.7 33.9,30.8 34.3,30.8 
		34.4,30.7 35,29 34.8,29 	"/>
	<polygon class="st1" points="41.1,28.9 41,28.9 41,30 40.8,30.2 40.3,30.2 40.1,30.1 40.1,28.9 40,28.9 40,30.2 40.2,30.4 
		40.8,30.4 41,30.2 41,30.4 41.2,30.4 41.1,30.1 	"/>
	<polygon class="st1" points="42.3,30.2 41.8,30.2 41.6,30.1 41.6,29.2 41.8,29.1 42.3,29.1 42.4,29.2 42.4,29.4 42.6,29.4 
		42.6,29.1 42.4,28.9 41.7,28.9 41.5,29.1 41.5,30.2 41.7,30.4 42.3,30.4 42.6,30.3 42.6,30.1 	"/>
	<polygon class="st1" points="43.6,30.2 43.3,30.2 43.2,30.1 43.2,29.2 43.7,29.2 43.7,29 43.2,29 43.2,28.5 43,28.5 43,29 42.8,29 
		42.8,29.2 43,29.2 43,30.2 43.2,30.4 43.6,30.4 43.9,30.3 43.8,30.1 	"/>
	<polygon class="st1" points="45.2,28.9 45,28.9 45,30 44.9,30.2 44.4,30.2 44.2,30.1 44.2,28.9 44.1,28.9 44.1,30.2 44.3,30.4 
		44.9,30.4 45.1,30.2 45.1,30.4 45.3,30.4 45.2,30.1 	"/>
	<polygon class="st1" points="45.9,28.9 45.8,29.1 45.7,28.9 45.6,28.9 45.6,29.2 45.6,30.4 45.8,30.4 45.8,29.3 46,29.1 46.3,29.1 
		46.6,29.3 46.7,29.2 46.4,28.9 	"/>
	<path class="st1" d="M47.9,30.1l-0.2,0.1h-0.6L47,30.1v-0.3h0.8l0.2-0.2v-0.4l-0.2-0.2H47l-0.2,0.2v1l0.2,0.2h0.7l0.3-0.1
		L47.9,30.1z M47,29.2l0.1-0.1h0.6l0.1,0.1v0.3l-0.1,0.1H47V29.2z"/>
</g>
</svg>
