<svg version="1.1" id="Layer_1" xmlns="http://www.w3.org/2000/svg" xmlns:xlink="http://www.w3.org/1999/xlink" x="0px" y="0px"
	 width="100%" viewBox="0 0 487 245" enable-background="new 0 0 487 245" xml:space="preserve">
<path fill="#FFFEFF" opacity="1.000000" stroke="none" 
	d="
M299.000000,246.000000 
	C199.333328,246.000000 100.166664,246.000000 1.000000,246.000000 
	C1.000000,164.333328 1.000000,82.666664 1.000000,1.000000 
	C163.333328,1.000000 325.666656,1.000000 488.000000,1.000000 
	C488.000000,82.666664 488.000000,164.333328 488.000000,246.000000 
	C425.166656,246.000000 362.333344,246.000000 299.000000,246.000000 
M130.971252,219.471268 
	C132.856216,217.585617 134.521484,215.391495 136.663086,213.866180 
	C147.579422,206.091278 150.317719,195.766617 150.055679,182.520050 
	C149.798035,169.496078 148.042252,157.856155 139.651794,147.792755 
	C137.761322,145.525345 135.278412,143.190262 132.589493,142.237640 
	C107.670799,133.409698 82.645340,124.883217 57.655277,116.256485 
	C51.265167,114.050583 47.223961,107.701225 48.387009,101.773552 
	C49.144127,97.914803 58.592472,90.089409 62.557346,90.084816 
	C74.889503,90.070511 87.222580,90.000519 99.553169,90.140129 
	C102.323166,90.171494 105.192482,90.628647 107.830963,91.470200 
	C118.718651,94.942856 129.535141,98.638748 140.798416,102.392792 
	C144.501068,91.339691 148.061050,80.712532 151.670242,69.938446 
	C150.285645,69.408524 149.532578,69.102203 148.767395,68.830063 
	C113.056160,56.129353 113.056038,56.129688 75.408875,56.129681 
	C73.075760,56.129681 70.742607,56.120255 68.409546,56.131371 
	C59.747673,56.172638 50.088646,53.837418 42.701111,56.928490 
	C35.133972,60.094704 30.280975,69.207802 23.358027,74.581764 
	C13.334325,82.362694 10.596888,91.792786 10.725121,104.287155 
	C10.860438,117.471558 12.617049,129.288696 21.198557,139.454910 
	C23.096823,141.703720 25.611948,143.969696 28.305222,144.925659 
	C53.061478,153.712830 77.919632,162.212921 102.747948,170.797119 
	C109.785873,173.230423 113.396706,179.045532 112.221642,186.050995 
	C111.543320,190.095016 102.002327,197.770416 97.617531,197.773499 
	C85.618668,197.781906 73.618713,197.862167 61.621727,197.711990 
	C58.856037,197.677383 56.001106,197.147171 53.357613,196.308197 
	C42.454208,192.847733 31.616348,189.180725 20.314739,185.444275 
	C16.614544,196.455765 13.049257,207.065781 9.372025,218.008926 
	C20.734444,221.813309 31.347460,225.686386 42.166645,228.855682 
	C47.652824,230.462769 53.494148,231.435699 59.204208,231.586578 
	C73.526199,231.964966 87.926849,230.889557 102.177811,231.964127 
	C114.205917,232.871078 123.555229,229.926636 130.971252,219.471268 
M187.412842,93.275688 
	C189.865051,93.275688 192.317261,93.275688 195.251953,93.275688 
	C195.251953,95.656113 195.251953,97.455574 195.251953,99.255028 
	C195.251984,131.577682 195.177917,163.900818 195.391525,196.222061 
	C195.408783,198.831848 196.883911,201.850159 198.587662,203.939941 
	C201.729752,207.793930 205.524277,211.120087 209.084091,214.628510 
	C214.773071,220.235336 219.602646,227.948227 226.449295,230.798996 
	C233.286224,233.645767 242.208282,231.062622 250.123734,231.822891 
	C271.258087,233.852783 289.460419,223.705444 309.434296,218.857315 
	C305.989868,207.868805 302.733093,197.478943 299.531494,187.265106 
	C298.741699,187.172485 298.386230,187.030060 298.095490,187.113419 
	C296.498871,187.571289 294.926056,188.111954 293.330627,188.574326 
	C278.244019,192.946609 263.688599,199.624130 247.274673,197.886261 
	C240.569626,197.176346 232.600525,189.985352 232.598129,183.296982 
	C232.587982,154.973007 232.593826,126.649040 232.593842,98.325066 
	C232.593842,96.853714 232.593872,95.382355 232.593872,93.310745 
	C248.285629,93.310745 263.516205,93.310745 278.989349,93.310745 
	C278.989349,81.790741 278.989349,70.870766 278.989349,59.338150 
	C263.583252,59.338150 248.351151,59.338150 232.617813,59.338150 
	C232.617813,43.322258 232.617813,27.907101 232.617813,12.380913 
	C219.913071,12.380913 207.727554,12.380913 195.037109,12.380913 
	C195.037109,28.173729 195.037109,43.581703 195.037109,59.435127 
	C185.270004,59.435127 176.005310,59.435127 166.587402,59.435127 
	C166.587402,70.916817 166.587402,81.934372 166.587402,93.275864 
	C173.468185,93.275864 179.952347,93.275864 187.412842,93.275688 
M378.480835,101.985023 
	C384.436371,91.858009 393.202362,88.029861 404.738617,90.017014 
	C407.165100,90.434990 409.813324,89.669762 412.200287,90.185699 
	C414.911865,90.771805 418.018860,91.560570 419.956970,93.344444 
	C428.742584,101.431038 437.176453,109.899818 444.824860,117.343346 
	C453.553497,109.276619 461.953217,101.513885 468.800995,95.185371 
	C457.421967,82.894920 446.432190,70.842354 435.160736,59.059196 
	C433.580017,57.406719 430.633148,56.302338 428.294128,56.258709 
	C414.474030,56.000938 400.633362,56.485630 386.827881,55.967571 
	C380.816986,55.742016 376.892365,57.654289 373.390442,62.285526 
	C369.470123,67.470093 364.943695,72.196388 360.149506,77.736298 
	C357.872772,68.806976 355.874023,60.967869 353.840851,52.993793 
	C343.596313,55.549362 333.846588,57.981495 323.907410,60.460892 
	C325.235474,65.856354 326.329651,70.710220 327.629791,75.508286 
	C331.815918,90.956779 334.462433,106.452606 334.152313,122.679153 
	C333.493591,157.145599 333.951233,191.633392 333.951233,226.112427 
	C333.951233,227.863861 333.951263,229.615280 333.951263,231.297668 
	C346.723480,231.297668 358.760803,231.297668 371.033020,231.297668 
	C371.033020,229.063950 371.033020,227.240707 371.033020,225.417465 
	C371.033020,190.605301 371.267242,155.790298 370.848480,120.983177 
	C370.757538,113.424019 372.231537,107.368469 378.480835,101.985023 
M470.344757,230.852951 
	C475.758423,227.053879 477.860809,221.923325 476.822571,215.371323 
	C476.513611,213.421417 476.958282,211.358063 476.710388,209.390442 
	C476.535461,208.002365 476.075439,206.449524 475.226746,205.379456 
	C469.572205,198.249832 463.176300,192.516373 452.999207,194.840088 
	C452.524261,194.948532 452.003021,194.853043 451.503326,194.854156 
	C447.296112,194.863495 435.280121,203.516556 435.201233,207.511795 
	C435.034302,215.968307 432.884460,224.658768 441.618042,231.503006 
	C449.941071,238.025497 462.347290,238.855255 470.344757,230.852951 
z"/>
<path fill="#E01376" opacity="1.000000" stroke="none" 
	d="
M130.721283,219.721298 
	C123.555229,229.926636 114.205917,232.871078 102.177811,231.964127 
	C87.926849,230.889557 73.526199,231.964966 59.204208,231.586578 
	C53.494148,231.435699 47.652824,230.462769 42.166645,228.855682 
	C31.347460,225.686386 20.734444,221.813309 9.372025,218.008926 
	C13.049257,207.065781 16.614544,196.455765 20.314739,185.444275 
	C31.616348,189.180725 42.454208,192.847733 53.357613,196.308197 
	C56.001106,197.147171 58.856037,197.677383 61.621727,197.711990 
	C73.618713,197.862167 85.618668,197.781906 97.617531,197.773499 
	C102.002327,197.770416 111.543320,190.095016 112.221642,186.050995 
	C113.396706,179.045532 109.785873,173.230423 102.747948,170.797119 
	C77.919632,162.212921 53.061478,153.712830 28.305222,144.925659 
	C25.611948,143.969696 23.096823,141.703720 21.198557,139.454910 
	C12.617049,129.288696 10.860438,117.471558 10.725121,104.287155 
	C10.596888,91.792786 13.334325,82.362694 23.358027,74.581764 
	C30.280975,69.207802 35.133972,60.094704 42.701111,56.928490 
	C50.088646,53.837418 59.747673,56.172638 68.409546,56.131371 
	C70.742607,56.120255 73.075760,56.129681 75.408875,56.129681 
	C113.056038,56.129688 113.056160,56.129353 148.767395,68.830063 
	C149.532578,69.102203 150.285645,69.408524 151.670242,69.938446 
	C148.061050,80.712532 144.501068,91.339691 140.798416,102.392792 
	C129.535141,98.638748 118.718651,94.942856 107.830963,91.470200 
	C105.192482,90.628647 102.323166,90.171494 99.553169,90.140129 
	C87.222580,90.000519 74.889503,90.070511 62.557346,90.084816 
	C58.592472,90.089409 49.144127,97.914803 48.387009,101.773552 
	C47.223961,107.701225 51.265167,114.050583 57.655277,116.256485 
	C82.645340,124.883217 107.670799,133.409698 132.589493,142.237640 
	C135.278412,143.190262 137.761322,145.525345 139.651794,147.792755 
	C148.042252,157.856155 149.798035,169.496078 150.055679,182.520050 
	C150.317719,195.766617 147.579422,206.091278 136.663086,213.866180 
	C134.521484,215.391495 132.856216,217.585617 130.721283,219.721298 
z"/>
<path fill="#E01577" opacity="1.000000" stroke="none" 
	d="
M186.924683,93.275772 
	C179.952347,93.275864 173.468185,93.275864 166.587402,93.275864 
	C166.587402,81.934372 166.587402,70.916817 166.587402,59.435127 
	C176.005310,59.435127 185.270004,59.435127 195.037109,59.435127 
	C195.037109,43.581703 195.037109,28.173729 195.037109,12.380913 
	C207.727554,12.380913 219.913071,12.380913 232.617813,12.380913 
	C232.617813,27.907101 232.617813,43.322258 232.617813,59.338150 
	C248.351151,59.338150 263.583252,59.338150 278.989349,59.338150 
	C278.989349,70.870766 278.989349,81.790741 278.989349,93.310745 
	C263.516205,93.310745 248.285629,93.310745 232.593872,93.310745 
	C232.593872,95.382355 232.593842,96.853714 232.593842,98.325066 
	C232.593826,126.649040 232.587982,154.973007 232.598129,183.296982 
	C232.600525,189.985352 240.569626,197.176346 247.274673,197.886261 
	C263.688599,199.624130 278.244019,192.946609 293.330627,188.574326 
	C294.926056,188.111954 296.498871,187.571289 298.095490,187.113419 
	C298.386230,187.030060 298.741699,187.172485 299.531494,187.265106 
	C302.733093,197.478943 305.989868,207.868805 309.434296,218.857315 
	C289.460419,223.705444 271.258087,233.852783 250.123734,231.822891 
	C242.208282,231.062622 233.286224,233.645767 226.449295,230.798996 
	C219.602646,227.948227 214.773071,220.235336 209.084091,214.628510 
	C205.524277,211.120087 201.729752,207.793930 198.587662,203.939941 
	C196.883911,201.850159 195.408783,198.831848 195.391525,196.222061 
	C195.177917,163.900818 195.251984,131.577682 195.251953,99.255028 
	C195.251953,97.455574 195.251953,95.656113 195.251953,93.275688 
	C192.317261,93.275688 189.865051,93.275688 186.924683,93.275772 
z"/>
<path fill="#E01276" opacity="1.000000" stroke="none" 
	d="
M378.243896,102.251175 
	C372.231537,107.368469 370.757538,113.424019 370.848480,120.983177 
	C371.267242,155.790298 371.033020,190.605301 371.033020,225.417465 
	C371.033020,227.240707 371.033020,229.063950 371.033020,231.297668 
	C358.760803,231.297668 346.723480,231.297668 333.951263,231.297668 
	C333.951263,229.615280 333.951233,227.863861 333.951233,226.112427 
	C333.951233,191.633392 333.493591,157.145599 334.152313,122.679153 
	C334.462433,106.452606 331.815918,90.956779 327.629791,75.508286 
	C326.329651,70.710220 325.235474,65.856354 323.907410,60.460892 
	C333.846588,57.981495 343.596313,55.549362 353.840851,52.993793 
	C355.874023,60.967869 357.872772,68.806976 360.149506,77.736298 
	C364.943695,72.196388 369.470123,67.470093 373.390442,62.285526 
	C376.892365,57.654289 380.816986,55.742016 386.827881,55.967571 
	C400.633362,56.485630 414.474030,56.000938 428.294128,56.258709 
	C430.633148,56.302338 433.580017,57.406719 435.160736,59.059196 
	C446.432190,70.842354 457.421967,82.894920 468.800995,95.185371 
	C461.953217,101.513885 453.553497,109.276619 444.824860,117.343346 
	C437.176453,109.899818 428.742584,101.431038 419.956970,93.344444 
	C418.018860,91.560570 414.911865,90.771805 412.200287,90.185699 
	C409.813324,89.669762 407.165100,90.434990 404.738617,90.017014 
	C393.202362,88.029861 384.436371,91.858009 378.243896,102.251175 
z"/>
<path fill="#E01376" opacity="1.000000" stroke="none" 
	d="
M470.090881,231.107544 
	C462.347290,238.855255 449.941071,238.025497 441.618042,231.503006 
	C432.884460,224.658768 435.034302,215.968307 435.201233,207.511795 
	C435.280121,203.516556 447.296112,194.863495 451.503326,194.854156 
	C452.003021,194.853043 452.524261,194.948532 452.999207,194.840088 
	C463.176300,192.516373 469.572205,198.249832 475.226746,205.379456 
	C476.075439,206.449524 476.535461,208.002365 476.710388,209.390442 
	C476.958282,211.358063 476.513611,213.421417 476.822571,215.371323 
	C477.860809,221.923325 475.758423,227.053879 470.090881,231.107544 
z"/>
</svg>